Normalized EMG Linear Envelopes
nRows=238
nColumns=4

endheader
time	 med_gas_r	  soleus_r	 tib_ant_r	
2.62786	  0.083509	  0.128740	  0.010838	
2.66112	  0.080996	  0.129293	  0.010634	
2.69438	  0.079687	  0.130317	  0.010459	
2.72765	  0.079465	  0.130901	  0.010364	
2.76091	  0.080072	  0.131023	  0.010349	
2.79418	  0.081142	  0.131446	  0.010385	
2.82744	  0.082748	  0.132187	  0.010437	
2.8607	  0.084777	  0.132482	  0.010497	
2.89397	  0.086691	  0.131270	  0.010565	
2.92723	  0.087655	  0.129404	  0.010641	
2.9605	  0.087599	  0.128450	  0.010727	
2.99376	  0.087252	  0.128756	  0.010851	
3.02702	  0.086963	  0.129553	  0.011030	
3.06029	  0.086791	  0.130280	  0.011240	
3.09355	  0.086521	  0.131535	  0.011458	
3.12682	  0.085675	  0.133136	  0.011659	
3.16008	  0.084223	  0.134270	  0.011803	
3.19334	  0.082488	  0.134906	  0.011843	
3.22661	  0.080905	  0.136236	  0.011781	
3.25987	  0.079757	  0.138457	  0.011645	
3.29314	  0.079558	  0.140748	  0.011458	
3.3264	  0.080409	  0.142248	  0.011270	
3.35966	  0.081873	  0.143700	  0.011163	
3.39293	  0.083479	  0.145476	  0.011161	
3.42619	  0.084725	  0.147001	  0.011229	
3.45946	  0.085507	  0.147563	  0.011339	
3.49272	  0.086071	  0.148075	  0.011471	
3.52598	  0.086499	  0.149152	  0.011570	
3.55925	  0.086711	  0.150100	  0.011547	
3.59251	  0.086817	  0.149232	  0.011381	
3.62578	  0.087172	  0.146705	  0.011128	
3.65904	  0.088009	  0.143984	  0.010889	
3.6923	  0.089118	  0.141493	  0.010703	
3.72557	  0.090098	  0.139100	  0.010581	
3.75883	  0.090480	  0.137522	  0.010514	
3.7921	  0.090386	  0.137555	  0.010448	
3.82536	  0.090108	  0.139003	  0.010363	
3.85862	  0.089870	  0.140574	  0.010298	
3.89189	  0.089553	  0.141759	  0.010239	
3.92515	  0.089068	  0.143224	  0.010168	
3.95842	  0.088524	  0.145004	  0.010096	
3.99168	  0.088061	  0.146101	  0.010030	
4.02494	  0.087732	  0.145927	  0.009959	
4.05821	  0.087615	  0.145198	  0.009888	
4.09147	  0.088059	  0.144436	  0.009867	
4.12474	  0.088963	  0.143380	  0.009909	
4.158	  0.089871	  0.142476	  0.009982	
4.19126	  0.090620	  0.142476	  0.010067	
4.22453	  0.091161	  0.143098	  0.010115	
4.25779	  0.091104	  0.143728	  0.010087	
4.29106	  0.090301	  0.145005	  0.009992	
4.32432	  0.089066	  0.147058	  0.009913	
4.35758	  0.087942	  0.149010	  0.009923	
4.39085	  0.087188	  0.150484	  0.010022	
4.42411	  0.086678	  0.151772	  0.010174	
4.45738	  0.086360	  0.152755	  0.010319	
4.49064	  0.086516	  0.153317	  0.010369	
4.5239	  0.087074	  0.154432	  0.010261	
4.55717	  0.087724	  0.156253	  0.010007	
4.59043	  0.088409	  0.158129	  0.009671	
4.6237	  0.089183	  0.160193	  0.009331	
4.65696	  0.090289	  0.162166	  0.009079	
4.69022	  0.091788	  0.163204	  0.008998	
4.72349	  0.093860	  0.163642	  0.009136	
4.75675	  0.096360	  0.164550	  0.009584	
4.79002	  0.098794	  0.165653	  0.010537	
4.82328	  0.100589	  0.166684	  0.012169	
4.85654	  0.101707	  0.167425	  0.014577	
4.88981	  0.102017	  0.166938	  0.017833	
4.92307	  0.101059	  0.165808	  0.021860	
4.95634	  0.098954	  0.164907	  0.026377	
4.9896	  0.096251	  0.164105	  0.030849	
5.02286	  0.093459	  0.164299	  0.034323	
5.05613	  0.090960	  0.166022	  0.035996	
5.08939	  0.089315	  0.169810	  0.036589	
5.12266	  0.088623	  0.176441	  0.037105	
5.15592	  0.088278	  0.184843	  0.038144	
5.18918	  0.087989	  0.193493	  0.039642	
5.22245	  0.087734	  0.201421	  0.040891	
5.25571	  0.087484	  0.206244	  0.041750	
5.28898	  0.087551	  0.207215	  0.042694	
5.32224	  0.088328	  0.206651	  0.043864	
5.3555	  0.090254	  0.206227	  0.045068	
5.38877	  0.093582	  0.207295	  0.045693	
5.42203	  0.098154	  0.210334	  0.045287	
5.4553	  0.103982	  0.213768	  0.044539	
5.48856	  0.111193	  0.217339	  0.044143	
5.52182	  0.119218	  0.222307	  0.044150	
5.55509	  0.126678	  0.229158	  0.044310	
5.58835	  0.131719	  0.238395	  0.044081	
5.62162	  0.133275	  0.248644	  0.043764	
5.65488	  0.132358	  0.259717	  0.044181	
5.68814	  0.130773	  0.272640	  0.045895	
5.72141	  0.129562	  0.285535	  0.048987	
5.75467	  0.128722	  0.296328	  0.053021	
5.78794	  0.127833	  0.304946	  0.058391	
5.8212	  0.128005	  0.312033	  0.065885	
5.85446	  0.129677	  0.317494	  0.075574	
5.88773	  0.131609	  0.321073	  0.086627	
5.92099	  0.132487	  0.323273	  0.097350	
5.95426	  0.132886	  0.326384	  0.106595	
5.98752	  0.133980	  0.331342	  0.115763	
6.02078	  0.136063	  0.336085	  0.126373	
6.05405	  0.138634	  0.341358	  0.138293	
6.08731	  0.142000	  0.348697	  0.150875	
6.12058	  0.146246	  0.359060	  0.163288	
6.15384	  0.150688	  0.372899	  0.175577	
6.1871	  0.153985	  0.388672	  0.189212	
6.22037	  0.156019	  0.406593	  0.205350	
6.25363	  0.157854	  0.426113	  0.225151	
6.2869	  0.159850	  0.444189	  0.250035	
6.32016	  0.161789	  0.457555	  0.281262	
6.35342	  0.164290	  0.464966	  0.320106	
6.38669	  0.168342	  0.466418	  0.365714	
6.41995	  0.173765	  0.463475	  0.414615	
6.45322	  0.178657	  0.458627	  0.460853	
6.48648	  0.181944	  0.453560	  0.500113	
6.51974	  0.184267	  0.447945	  0.528457	
6.55301	  0.186164	  0.442685	  0.544195	
6.58627	  0.186973	  0.439170	  0.549399	
6.61954	  0.187127	  0.437947	  0.548554	
6.6528	  0.187233	  0.440656	  0.544840	
6.68606	  0.187498	  0.449951	  0.542921	
6.71933	  0.188295	  0.466468	  0.545858	
6.75259	  0.189676	  0.488472	  0.555117	
6.78586	  0.192223	  0.510924	  0.572057	
6.81912	  0.195918	  0.530607	  0.594938	
6.85238	  0.199570	  0.546732	  0.616030	
6.88565	  0.202366	  0.557969	  0.628713	
6.91891	  0.204704	  0.563113	  0.634739	
6.95218	  0.207365	  0.562595	  0.635940	
6.98544	  0.209369	  0.558209	  0.636215	
7.0187	  0.209544	  0.551782	  0.639585	
7.05197	  0.208147	  0.543779	  0.644318	
7.08523	  0.205342	  0.535267	  0.645144	
7.1185	  0.201022	  0.527454	  0.638677	
7.15176	  0.196860	  0.522612	  0.627610	
7.18502	  0.194428	  0.522065	  0.614937	
7.21829	  0.193402	  0.524992	  0.601676	
7.25155	  0.192025	  0.530574	  0.589299	
7.28482	  0.189615	  0.536219	  0.578687	
7.31808	  0.187883	  0.540322	  0.569033	
7.35134	  0.188082	  0.541704	  0.558473	
7.38461	  0.189517	  0.541302	  0.544862	
7.41787	  0.190204	  0.539832	  0.529437	
7.45114	  0.190374	  0.536711	  0.517282	
7.4844	  0.191428	  0.532408	  0.510930	
7.51766	  0.193472	  0.527175	  0.511105	
7.55093	  0.195582	  0.521063	  0.517940	
7.58419	  0.195751	  0.511208	  0.528265	
7.61746	  0.193585	  0.498276	  0.540242	
7.65072	  0.191711	  0.485197	  0.553410	
7.68398	  0.191831	  0.472930	  0.568151	
7.71725	  0.193695	  0.461685	  0.582064	
7.75051	  0.195846	  0.451390	  0.591104	
7.78378	  0.196594	  0.442370	  0.594817	
7.81704	  0.196549	  0.437447	  0.595278	
7.8503	  0.196704	  0.437973	  0.595401	
7.88357	  0.197252	  0.442513	  0.597237	
7.91683	  0.197437	  0.450523	  0.599858	
7.9501	  0.197185	  0.461057	  0.603038	
7.98336	  0.197015	  0.470549	  0.609030	
8.01662	  0.197498	  0.476868	  0.618400	
8.04989	  0.199010	  0.480483	  0.625280	
8.08315	  0.200757	  0.481499	  0.627005	
8.11642	  0.202543	  0.478779	  0.623173	
8.14968	  0.204504	  0.474912	  0.616135	
8.18294	  0.206333	  0.471287	  0.609239	
8.21621	  0.207061	  0.467471	  0.602674	
8.24947	  0.206913	  0.464654	  0.596083	
8.28274	  0.207053	  0.464866	  0.591117	
8.316	  0.208092	  0.468774	  0.586970	
8.34926	  0.209869	  0.477005	  0.583938	
8.38253	  0.212731	  0.488652	  0.582551	
8.41579	  0.215748	  0.498848	  0.580609	
8.44906	  0.218163	  0.504616	  0.578408	
8.48232	  0.219129	  0.505238	  0.577948	
8.51558	  0.220193	  0.503182	  0.581011	
8.54885	  0.222222	  0.500848	  0.590124	
8.58211	  0.223965	  0.499190	  0.604401	
8.61538	  0.224586	  0.497664	  0.618189	
8.64864	  0.224505	  0.496346	  0.625743	
8.6819	  0.222812	  0.496870	  0.625721	
8.71517	  0.218984	  0.501759	  0.620589	
8.74843	  0.214308	  0.512245	  0.616538	
8.7817	  0.211871	  0.526679	  0.621532	
8.81496	  0.212509	  0.540689	  0.636790	
8.84822	  0.214680	  0.549266	  0.659340	
8.88149	  0.217008	  0.553170	  0.684046	
8.91475	  0.220226	  0.552888	  0.705136	
8.94802	  0.225352	  0.547647	  0.718768	
8.98128	  0.231773	  0.537483	  0.721438	
9.01454	  0.239838	  0.524890	  0.712946	
9.04781	  0.250006	  0.513103	  0.694727	
9.08107	  0.261967	  0.501863	  0.669326	
9.11434	  0.275038	  0.491330	  0.639632	
9.1476	  0.289280	  0.483620	  0.611748	
9.18086	  0.302322	  0.478198	  0.589243	
9.21413	  0.309992	  0.472799	  0.574916	
9.24739	  0.309155	  0.466946	  0.572329	
9.28066	  0.301243	  0.460714	  0.581386	
9.31392	  0.289026	  0.453772	  0.598480	
9.34718	  0.274582	  0.445584	  0.619899	
9.38045	  0.260155	  0.436604	  0.641811	
9.41371	  0.249116	  0.427555	  0.659846	
9.44698	  0.242489	  0.419830	  0.671250	
9.48024	  0.238290	  0.415905	  0.674864	
9.5135	  0.234548	  0.414712	  0.674695	
9.54677	  0.232091	  0.413629	  0.674366	
9.58003	  0.231053	  0.410139	  0.672083	
9.6133	  0.230905	  0.404863	  0.670062	
9.64656	  0.230553	  0.399755	  0.676978	
9.67982	  0.229542	  0.398424	  0.696902	
9.71309	  0.228776	  0.402692	  0.725546	
9.74635	  0.227867	  0.412573	  0.753130	
9.77962	  0.226816	  0.427806	  0.769061	
9.81288	  0.226491	  0.447356	  0.775733	
9.84614	  0.227980	  0.467490	  0.777678	
9.87941	  0.229831	  0.483449	  0.771852	
9.91267	  0.229764	  0.493008	  0.757883	
9.94594	  0.227906	  0.497094	  0.741234	
9.9792	  0.225962	  0.495109	  0.727515	
10.0125	  0.225157	  0.485823	  0.720583	
10.0457	  0.225076	  0.472502	  0.721267	
10.079	  0.225160	  0.457063	  0.728299	
10.1123	  0.226330	  0.441068	  0.737612	
10.1455	  0.229516	  0.426003	  0.748642	
10.1788	  0.234044	  0.413728	  0.762622	
10.212	  0.237742	  0.406586	  0.776506	
10.2453	  0.241050	  0.404982	  0.786829	
10.2786	  0.244234	  0.406943	  0.792624	
10.3118	  0.245466	  0.410642	  0.790615	
10.3451	  0.244959	  0.414169	  0.779885	
10.3784	  0.243949	  0.415541	  0.760439	
10.4116	  0.242132	  0.414344	  0.735758	
10.4449	  0.238596	  0.410831	  0.708341	
10.4782	  0.233911	  0.406044	  0.680275	
10.5114	  0.227796	  0.399984	  0.656664	
